<svg width="392" height="273" viewBox="0 0 392 273" fill="none" xmlns="http://www.w3.org/2000/svg">
<rect width="392" height="273" fill="#211C5C"/>
<mask id="mask0_1_171" style="mask-type:alpha" maskUnits="userSpaceOnUse" x="0" y="0" width="392" height="273">
<rect width="392" height="273" fill="#211C5C"/>
</mask>
<g mask="url(#mask0_1_171)">
<path opacity="0.16" d="M-44.136 40.0966C-185.266 -5.95588 -289.948 39.4952 -289.948 39.4952L-308.454 264.93L-24.5476 367.625L594.908 339.663C594.908 339.663 524.493 229.234 419.129 206.701C313.764 184.167 230.784 226.645 148.353 172.458C69.6665 120.726 69.3003 77.1123 -44.1193 40.0966H-44.136Z" fill="#0ECCA0"/>
<path opacity="0.24" d="M-41.856 165.024C-137.817 152.864 -200.177 192.168 -200.177 192.168L-187.146 331.077L450.783 322.241L402.719 275.336C402.719 275.336 345.152 216.188 274.82 214.301C204.488 212.413 155.775 247.491 96.6941 223.822C40.3088 201.238 35.2494 174.796 -41.8726 165.024H-41.856Z" fill="#0ECCA0"/>
<path opacity="0.5" d="M88.2392 177.937C31.1883 156.622 -12.6485 171.806 -12.6485 171.806C-12.6485 171.806 -67.8688 193.438 -76.7726 209.774C-90.586 235.114 -57.0344 309.897 -57.0344 309.897H344.786C344.786 309.897 317.991 265.214 275.186 253.922C232.365 242.614 197.498 257.163 164.712 234.095C133.407 212.063 134.09 195.075 88.2559 177.953L88.2392 177.937Z" fill="#08C79B"/>
<path opacity="0.9" d="M62.2425 222.168C23.615 205.398 -7.22387 214.05 -7.22387 214.05C-7.22387 214.05 -51.2603 224.273 -59.6981 235.715C-72.5795 253.17 -67.8364 322.241 -67.8364 322.241H234.694C234.694 322.241 217.801 290.704 188.627 281.316C159.469 271.929 134.854 280.498 113.036 263.477C92.1993 247.224 93.2811 235.648 62.2425 222.168Z" fill="#0AC297"/>
</g>
</svg>
